<svg width="13" height="13" viewBox="0 0 13 13" fill="none" xmlns="http://www.w3.org/2000/svg">
<path d="M13 6.5C13 10.0906 10.0896 13 6.5 13C2.9104 13 0 10.0906 0 6.5C0 2.91145 2.9104 0 6.5 0C10.0896 0 13 2.91145 13 6.5ZM6.5 7.81048C5.83414 7.81048 5.29435 8.35027 5.29435 9.01613C5.29435 9.68199 5.83414 10.2218 6.5 10.2218C7.16586 10.2218 7.70565 9.68199 7.70565 9.01613C7.70565 8.35027 7.16586 7.81048 6.5 7.81048ZM5.35534 3.47682L5.54977 7.04133C5.55886 7.20813 5.69678 7.33871 5.86381 7.33871H7.13619C7.30322 7.33871 7.44114 7.20813 7.45023 7.04133L7.64466 3.47682C7.65448 3.29665 7.51104 3.14516 7.33061 3.14516H5.66936C5.48894 3.14516 5.34552 3.29665 5.35534 3.47682Z" fill="#4169E1"/>
</svg>
