<?xml version="1.0" standalone="no"?>
<!DOCTYPE svg PUBLIC "-//W3C//DTD SVG 20010904//EN"
 "http://www.w3.org/TR/2001/REC-SVG-20010904/DTD/svg10.dtd">
<svg version="1.0" xmlns="http://www.w3.org/2000/svg"
 width="211.000000pt" height="211.000000pt" viewBox="0 0 211.000000 211.000000"
 preserveAspectRatio="xMidYMid meet">

<g transform="translate(0.000000,211.000000) scale(0.100000,-0.100000)"
fill="#000000" stroke="none">
<path d="M925 2099 c-224 -30 -428 -127 -590 -280 -98 -93 -164 -182 -220
-294 -147 -298 -147 -642 0 -940 25 -49 53 -100 63 -112 l17 -23 1 26 c3 37
50 92 120 139 60 41 201 94 363 136 107 28 132 49 138 116 5 43 1 56 -21 89
-15 22 -38 75 -52 119 -14 44 -32 84 -41 88 -26 15 -63 108 -63 160 0 52 20
101 45 110 12 5 15 25 15 100 0 113 17 170 70 230 58 66 141 100 257 105 124
6 210 -19 280 -83 69 -61 95 -123 101 -245 4 -80 8 -99 28 -123 13 -15 26 -43
30 -61 8 -47 -20 -138 -55 -178 -15 -18 -38 -64 -50 -103 -13 -38 -36 -89 -52
-113 -16 -24 -29 -53 -29 -65 0 -43 21 -97 43 -111 12 -8 88 -33 170 -55 158
-44 249 -81 322 -131 50 -34 71 -62 90 -117 l13 -36 45 78 c95 161 139 331
140 530 0 202 -47 375 -149 547 -67 113 -239 285 -352 352 -198 118 -461 174
-677 145z"/>
<path d="M957 1819 c-60 -14 -134 -56 -161 -92 -41 -54 -56 -110 -56 -211 0
-89 -1 -93 -30 -121 -20 -19 -30 -39 -30 -58 0 -50 22 -108 53 -138 18 -19 35
-51 44 -86 16 -60 56 -147 73 -158 18 -11 12 -127 -10 -162 -26 -44 -52 -58
-146 -82 -294 -75 -441 -156 -460 -256 -5 -31 -8 -34 -22 -23 -41 32 70 -92
139 -156 191 -177 431 -268 704 -269 271 0 513 92 704 269 69 65 186 196 133
150 l-22 -19 0 33 c0 99 -117 173 -404 255 -87 24 -165 50 -174 57 -26 22 -52
91 -52 138 0 33 8 56 30 89 26 38 70 157 70 189 0 6 9 16 21 22 28 16 59 86
59 138 0 32 -6 49 -23 66 -21 20 -25 37 -30 120 -4 54 -12 115 -18 137 -15 49
-70 114 -118 138 -73 37 -190 50 -274 30z"/>
</g>
</svg>
